<svg width="93" height="55" viewBox="0 0 93 55" fill="none" xmlns="http://www.w3.org/2000/svg">
<rect width="93" height="55" rx="27.5" fill="#BCB2FD"/>
<path d="M66.9847 18.5483C65.966 18.5483 65.0122 18.9424 64.2928 19.657L61.4 22.5423C60.6181 23.3215 60.2182 24.4012 60.3009 25.5077C60.3076 25.5678 60.312 25.6301 60.3188 25.6903C60.4237 26.5407 60.7968 27.3065 61.4 27.9076C61.8177 28.3239 62.3315 28.6401 62.8877 28.8226C62.9168 28.9896 62.9324 29.161 62.9324 29.3302C62.9324 30.0938 62.6353 30.8107 62.0947 31.3495L61.916 31.5276C60.9487 31.1981 60.0909 30.6638 59.3604 29.938C58.3931 28.974 57.7542 27.7585 57.513 26.4227L57.4795 26.2357L57.332 26.3559C57.2337 26.4361 57.1377 26.5229 57.0506 26.6097L54.1554 29.495C52.6721 30.9732 52.6721 33.3798 54.1554 34.8603C54.8971 35.5994 55.8733 35.969 56.8473 35.969C57.8213 35.969 58.7975 35.5994 59.5391 34.8603L62.4342 31.975C63.9176 30.4968 63.9176 28.0902 62.4342 26.6119C62.0388 26.2179 61.5675 25.9218 61.0336 25.7303C61.0046 25.5567 60.9889 25.383 60.9889 25.2138C60.9889 24.3834 61.3195 23.5953 61.9205 22.9942C62.89 23.3237 63.7478 23.858 64.4738 24.5816C65.4388 25.5433 66.0777 26.7589 66.3212 28.0969L66.3547 28.2839L66.5022 28.1637C66.6005 28.0835 66.6965 27.9967 66.7859 27.9076L69.681 25.0246C71.1643 23.5463 71.1643 21.1397 69.681 19.6593C68.9639 18.9446 68.0078 18.5506 66.9892 18.5506L66.9847 18.5483Z" fill="#1C3C3C"/>
<path d="M65.4333 8H27.5667C16.777 8 8 16.7471 8 27.5C8 38.2529 16.777 47 27.5667 47H65.4333C76.223 47 85 38.2529 85 27.5C85 16.7471 76.223 8 65.4333 8ZM46.7558 38.5735C46.1303 38.7027 45.4288 38.7271 44.953 38.2285C44.7766 38.6314 44.3677 38.4199 44.0483 38.3665C44.0193 38.4489 43.9947 38.5201 43.9656 38.6025C42.9113 38.6737 42.1205 37.6006 41.6178 36.7903C40.6193 36.2537 39.4867 35.9243 38.468 35.361C38.4077 36.2894 38.6132 37.4381 37.7264 38.0392C37.6817 39.8225 40.4361 38.2485 40.6863 39.5798C40.4897 39.5998 40.273 39.5486 40.1167 39.7C39.3996 40.3969 38.573 39.1746 37.7465 39.6778C36.6363 40.2366 36.5223 40.6907 35.1485 40.8065C35.0725 40.6929 35.1038 40.615 35.1686 40.546C35.555 40.0985 35.5819 39.5687 36.2453 39.3772C35.564 39.2704 34.9943 39.6444 34.4225 39.9427C33.6763 40.2455 33.683 39.257 32.5348 39.9939C32.4075 39.8915 32.4678 39.798 32.5415 39.7178C32.8342 39.3639 33.2162 39.3104 33.6495 39.3305C31.5229 38.1483 30.5221 40.7753 29.5392 39.4707C29.2443 39.5486 29.1326 39.8136 28.9472 40.0028C28.7864 39.8269 28.9092 39.6154 28.9159 39.4084C28.7238 39.3193 28.4803 39.2748 28.5384 38.9698C28.1609 38.8429 27.9017 39.0655 27.6225 39.277C27.3701 39.0833 27.7923 38.7962 27.8705 38.5936C28.0961 38.2017 28.6076 38.5134 28.869 38.2329C29.6084 37.8144 30.6405 38.4956 31.4849 38.3798C32.1372 38.4622 32.9436 37.7943 32.6152 37.1309C31.9183 36.2448 32.0434 35.0849 32.0277 34.023C31.9406 33.4063 30.4528 32.6182 30.0217 31.9503C29.49 31.3492 29.0745 30.6546 28.6613 29.9689C27.1646 27.0815 27.6359 23.3702 25.7505 20.6876C24.8972 21.1573 23.7869 20.9347 23.0497 20.3047C22.6521 20.6653 22.6342 21.1373 22.6029 21.6382C21.6513 20.6898 21.7697 18.8954 22.5315 17.8379C22.842 17.4194 23.2128 17.0765 23.6305 16.776C23.7244 16.7092 23.7556 16.6402 23.7534 16.5356C24.5062 13.1583 29.6442 13.8106 31.2704 16.2016C32.4499 17.6732 32.8051 19.6212 34.141 20.9904C35.9393 22.9517 37.9878 24.6793 39.6475 26.7698C41.2157 28.6799 42.3394 30.9173 43.3156 33.1748C43.7155 33.9228 43.7177 34.8423 44.3097 35.4812C44.6023 35.8664 46.0253 36.9172 45.717 37.289C45.8957 37.6741 47.2249 38.2084 46.7647 38.5824L46.7558 38.5735ZM71.7128 27.0525L68.8199 29.9378C68.0492 30.7058 67.0954 31.2802 66.0633 31.5941L66.0119 31.6097L65.9918 31.6609C65.6545 32.547 65.1452 33.3351 64.4728 34.0052L61.5776 36.8905C60.3155 38.1483 58.6356 38.8407 56.8485 38.8407C55.0614 38.8407 53.3815 38.1483 52.1194 36.8927C49.5124 34.2946 49.5124 30.0647 52.1194 27.4666L55.0145 24.5813C55.7896 23.8088 56.7167 23.2545 57.7666 22.9317L57.818 22.9161L57.8381 22.8649C58.1732 21.9788 58.687 21.1885 59.3639 20.5139L62.2568 17.6287C63.5189 16.3708 65.1988 15.6784 66.9859 15.6784C68.773 15.6784 70.4551 16.3708 71.715 17.6287C72.975 18.8865 73.6719 20.5607 73.6697 22.3417C73.6697 24.125 72.975 25.7991 71.7128 27.0547V27.0525Z" fill="#1C3C3C"/>
<path d="M34.9839 35.0801C34.7292 36.0663 34.6465 37.7472 33.3598 37.7961C33.2548 38.3661 33.7552 38.5798 34.2132 38.3972C34.6644 38.1902 34.8789 38.5598 35.033 38.9293C35.73 39.0317 36.7643 38.6978 36.8045 37.8718C35.7612 37.273 35.4396 36.1331 34.9861 35.0801H34.9839Z" fill="#1C3C3C"/>
</svg>
